<?xml version="1.0" standalone="no"?>
<!DOCTYPE svg PUBLIC "-//W3C//DTD SVG 20010904//EN"
 "http://www.w3.org/TR/2001/REC-SVG-20010904/DTD/svg10.dtd">
<svg version="1.0" xmlns="http://www.w3.org/2000/svg"
 width="180.000000pt" height="180.000000pt" viewBox="0 0 180.000000 180.000000"
 preserveAspectRatio="xMidYMid meet">
<metadata>
Created by potrace 1.14, written by Peter Selinger 2001-2017
</metadata>
<g transform="translate(0.000000,180.000000) scale(0.100000,-0.100000)"
fill="#000000" stroke="none">
<path d="M775 1735 c-33 -6 -63 -12 -68 -13 -4 -1 -19 -4 -35 -8 -15 -3 -36
-9 -47 -13 -33 -13 -160 -75 -165 -81 -3 -3 -18 -14 -35 -24 -51 -33 -131
-109 -174 -166 -14 -19 -29 -37 -33 -40 -30 -23 -120 -239 -133 -320 -11 -68
-13 -240 -2 -285 5 -22 10 -49 11 -61 2 -11 6 -26 10 -33 4 -6 10 -24 12 -39
3 -15 9 -31 15 -37 5 -5 9 -15 9 -23 0 -31 99 -179 165 -246 123 -127 283
-214 441 -242 54 -10 274 -13 274 -4 0 4 12 6 28 5 15 -1 33 2 40 8 6 5 12 7
12 4 0 -10 61 12 167 60 99 44 291 209 308 264 4 10 10 19 15 19 4 0 10 8 14
18 3 9 14 31 24 47 20 32 59 128 67 160 26 116 31 159 29 248 -1 56 -5 113 -8
127 -3 14 -9 38 -12 54 -2 16 -7 33 -10 38 -3 4 -7 18 -9 30 -6 29 -80 182
-97 200 -7 7 -25 30 -41 50 -37 49 -112 122 -162 156 -22 15 -42 30 -45 33 -5
6 -121 62 -155 75 -34 12 -38 13 -105 29 -83 20 -228 25 -305 10z m35 -454 l0
-269 -272 2 c-237 1 -273 3 -270 16 2 8 6 24 8 34 27 137 150 314 274 392 52
32 194 88 233 92 l27 2 0 -269z m260 253 c45 -9 173 -74 220 -112 74 -60 111
-102 155 -177 37 -62 48 -86 62 -130 29 -95 37 -252 18 -340 -12 -57 -58 -160
-96 -215 -44 -65 -114 -140 -129 -140 -5 0 -10 -4 -10 -8 0 -28 -264 -142
-284 -122 -12 12 -14 67 -5 102 4 14 5 29 2 32 -9 9 -12 66 -4 71 8 4 5 70 -3
92 -3 6 -1 25 4 42 4 16 5 32 2 35 -8 9 -9 86 -1 86 4 0 4 15 0 33 -4 17 -4
43 -1 57 4 14 3 37 -1 53 -4 15 -4 40 1 56 4 16 5 32 2 35 -8 8 -9 86 -1 86 6
0 3 55 -5 76 -2 6 -1 17 4 24 4 7 4 26 0 41 -5 16 -5 42 0 58 4 16 5 32 2 35
-8 9 -9 86 -1 86 4 0 3 16 -1 34 -4 19 -6 37 -3 39 2 3 4 24 5 47 0 38 2 41
22 35 11 -3 32 -8 46 -11z m-267 -713 c4 -1 7 -123 7 -271 l0 -270 -22 4 c-13
3 -33 7 -45 10 -13 4 -31 8 -40 10 -60 14 -158 72 -242 142 -36 30 -106 124
-134 181 -33 64 -69 191 -56 195 8 3 506 1 532 -1z"/>
</g>
</svg>
